# xmcd CD database file
#
# Track frame offsets:
#	150
#	35420
#	59740
#	78445
#	88054
#
# Disc length: 1684 seconds
#
# Revision: 1
# Processed by: cddbd v1.5.2PL0 Copyright (c) Steve Scherf et al.
# Submitted via: CDex 1.81
#
DISCID=3c069205
DTITLE=Ishkero - Ishkero
DYEAR=2016
DGENRE=Jazz
TTITLE0=Framboide des Bois
TTITLE1=Shinpai Shinaide
TTITLE2=Fo'Rakor.1
TTITLE3=Fo'Rakor.2
TTITLE4=Mokujin
EXTD=YEAR: 2016
EXTT0=
EXTT1=
EXTT2=
EXTT3=
EXTT4=
PLAYORDER=
